<?xml version="1.0" encoding="UTF-8" standalone="no"?>
<svg
   version="1.1"
   viewBox="-10 0 806 1000"
   id="svg1"
   sodipodi:docname="u1CC6F_KenigSymbols.svg"
   inkscape:version="1.3.2 (091e20e, 2023-11-25, custom)"
   xmlns:inkscape="http://www.inkscape.org/namespaces/inkscape"
   xmlns:sodipodi="http://sodipodi.sourceforge.net/DTD/sodipodi-0.dtd"
   xmlns="http://www.w3.org/2000/svg"
   xmlns:svg="http://www.w3.org/2000/svg">
  <defs
     id="defs1" />
  <sodipodi:namedview
     id="namedview1"
     pagecolor="#ffffff"
     bordercolor="#000000"
     borderopacity="0.25"
     inkscape:showpageshadow="2"
     inkscape:pageopacity="0.0"
     inkscape:pagecheckerboard="0"
     inkscape:deskcolor="#d1d1d1"
     inkscape:zoom="0.791"
     inkscape:cx="402.65487"
     inkscape:cy="498.73578"
     inkscape:window-width="1920"
     inkscape:window-height="991"
     inkscape:window-x="-9"
     inkscape:window-y="-9"
     inkscape:window-maximized="1"
     inkscape:current-layer="svg1" />
  <path
     id="path7"
     style="fill:currentColor"
     inkscape:label="path1"
     d="M 398 100 C 350.0001 100 304.99992 109.00004 263 127 C 221.00008 144.99996 184.1666 170.00006 152.5 202 C 120.8334 233.99994 95.999964 270.83341 78 312.5 C 60.000036 354.16658 51 399.0001 51 447 C 51 494.9999 60.000036 540.00008 78 582 C 95.999964 623.99992 121.00006 660.8334 153 692.5 C 184.99994 724.16661 221.83342 749.00004 263.5 767 C 305.16658 784.99996 350.0001 794 398 794 C 445.9999 794 491.00008 784.99996 533 767 C 574.99992 749.00004 611.8334 724.1666 643.5 692.5 C 675.16661 660.83339 700.00004 623.99992 718 582 C 735.99996 540.00008 745 494.9999 745 447 C 745 399.0001 735.99996 353.99992 718 312 C 700.00004 270.00008 675.1666 233.1666 643.5 201.5 C 611.83339 169.8334 574.99992 144.99996 533 127 C 491.00008 109.00004 445.9999 100 398 100 z M 266 330 C 279.33331 330 290.16668 334.33335 298.5 343 C 306.83331 351.66665 311 362.33336 311 375 C 311 387.66664 306.83331 398.33335 298.5 407 C 290.16668 415.66665 279.33331 420 266 420 C 253.33336 420 242.66665 415.66665 234 407 C 225.33335 398.33335 221 387.66664 221 375 C 221 362.33336 225.16668 351.66665 233.5 343 C 241.83331 334.33335 252.66669 330 266 330 z M 530 330 C 542.66664 330 553.33335 334.33335 562 343 C 570.66665 351.66665 575 362.33336 575 375 C 575 387.66664 570.66665 398.33335 562 407 C 553.33335 415.66665 542.66664 420 530 420 C 517.33336 420 506.66665 415.66665 498 407 C 489.33335 398.33335 485 387.66664 485 375 C 485 362.33336 489.16668 351.66665 497.5 343 C 505.83332 334.33335 516.66669 330 530 330 z M 245 537 L 551 537 L 551 589 L 245 589 L 245 537 z " />
</svg>
